{"accessors":[{"bufferView":2,"componentType":5126,"count":48,"max":[11.811019897460938,11.811019897460938,1.9685039520263672],"min":[0,0,0],"type":"VEC3"},{"bufferView":2,"byteOffset":576,"componentType":5126,"count":48,"max":[1,1,1],"min":[-1,-1,-1],"type":"VEC3"},{"bufferView":1,"componentType":5126,"count":48,"max":[1,1],"min":[-1,0],"type":"VEC2"},{"bufferView":0,"componentType":5125,"count":72,"type":"SCALAR"}],"asset":{"extras":{"author":"Hardscape (https://sketchfab.com/hardscape)","license":"CC-BY-4.0 (http://creativecommons.org/licenses/by/4.0/)","source":"https://sketchfab.com/3d-models/premium-black-flamed-a96aac8e6a1a4e46aa9a66a07d9ce12d","title":"Premium Black Flamed"},"generator":"Sketchfab-12.68.0","version":"2.0"},"bufferViews":[{"buffer":0,"byteLength":288,"name":"floatBufferViews","target":34963},{"buffer":0,"byteLength":384,"byteOffset":288,"byteStride":8,"name":"floatBufferViews","target":34962},{"buffer":0,"byteLength":1152,"byteOffset":672,"byteStride":12,"name":"floatBufferViews","target":34962}],"buffers":[{"byteLength":1824,"uri":"data:application/octet-stream;base64,"}],"images":[{"uri":"data:application/octet-stream;base64,"}],"materials":[{"name":"Premium_Black_Flamed","pbrMetallicRoughness":{"baseColorTexture":{"index":0},"metallicFactor":0,"roughnessFactor":0.6}}],"meshes":[{"name":"Material2","primitives":[{"attributes":{"NORMAL":1,"POSITION":0,"TEXCOORD_0":2},"indices":3,"material":0,"mode":4}]}],"nodes":[{"children":[1],"matrix":[1,0,0,0,0,2.220446049250313e-16,-1,0,0,1,2.220446049250313e-16,0,0,0,0,1],"name":"Sketchfab_model"},{"children":[2],"name":"Collada visual scene group"},{"children":[3,5],"name":"SketchUp"},{"children":[4],"matrix":[0.250222,0.9681885,1.387779e-17,0,-0.7695225,0.1988781,0.606863,0,0.5875577,-0.1518505,0.7948065,0,25.39595,8.494514,19.29476,1],"name":"skp_camera_Last_Saved_SketchUp_View"},{"name":"ID1"},{"children":[6],"matrix":[1,0,0,0,0,1,0,0,0,0,1,0,6.089811,6.544692,0,1],"name":"group_0"},{"mesh":0,"name":"Material2"}],"samplers":[{"magFilter":9729,"minFilter":9987,"wrapS":10497,"wrapT":10497}],"scene":0,"scenes":[{"name":"Sketchfab_Scene","nodes":[0]}],"textures":[{"sampler":0,"source":0}]}